<mxfile host="app.diagrams.net" agent="Mozilla/5.0 (Macintosh; Intel Mac OS X 10_15_7) AppleWebKit/537.36 (KHTML, like Gecko) Chrome/131.0.0.0 Safari/537.36" version="24.7.7">
  <diagram name="Page-1" id="tlTpZx2c4kacrAavi_ZJ">
    <mxGraphModel dx="1715" dy="929" grid="0" gridSize="10" guides="1" tooltips="1" connect="1" arrows="1" fold="1" page="0" pageScale="1" pageWidth="850" pageHeight="1100" math="0" shadow="0">
      <root>
        <mxCell id="0" />
        <mxCell id="1" parent="0" />
        <mxCell id="4Vv4FzAK36hIdMXPsBs1-17" style="edgeStyle=none;curved=1;rounded=0;orthogonalLoop=1;jettySize=auto;html=1;fontSize=12;startSize=8;endSize=8;" edge="1" parent="1" source="4Vv4FzAK36hIdMXPsBs1-1" target="4Vv4FzAK36hIdMXPsBs1-7">
          <mxGeometry relative="1" as="geometry" />
        </mxCell>
        <mxCell id="4Vv4FzAK36hIdMXPsBs1-1" value="HomeScreen" style="rounded=1;whiteSpace=wrap;html=1;" vertex="1" parent="1">
          <mxGeometry x="-379" y="-20" width="120" height="60" as="geometry" />
        </mxCell>
        <mxCell id="4Vv4FzAK36hIdMXPsBs1-18" style="edgeStyle=none;curved=1;rounded=0;orthogonalLoop=1;jettySize=auto;html=1;exitX=0.5;exitY=1;exitDx=0;exitDy=0;fontSize=12;startSize=8;endSize=8;" edge="1" parent="1" source="4Vv4FzAK36hIdMXPsBs1-3" target="4Vv4FzAK36hIdMXPsBs1-8">
          <mxGeometry relative="1" as="geometry" />
        </mxCell>
        <mxCell id="4Vv4FzAK36hIdMXPsBs1-3" value="EggListScreen&lt;div&gt;(remote/local)&lt;/div&gt;" style="rounded=1;whiteSpace=wrap;html=1;" vertex="1" parent="1">
          <mxGeometry x="-194" y="-20" width="120" height="60" as="geometry" />
        </mxCell>
        <mxCell id="4Vv4FzAK36hIdMXPsBs1-7" value="HomeViewModel" style="rounded=1;whiteSpace=wrap;html=1;" vertex="1" parent="1">
          <mxGeometry x="-379" y="135" width="120" height="60" as="geometry" />
        </mxCell>
        <mxCell id="4Vv4FzAK36hIdMXPsBs1-8" value="EggsListViewModel" style="rounded=1;whiteSpace=wrap;html=1;" vertex="1" parent="1">
          <mxGeometry x="-194" y="135" width="120" height="60" as="geometry" />
        </mxCell>
        <mxCell id="4Vv4FzAK36hIdMXPsBs1-9" value="EggDetailsViewModel" style="rounded=1;whiteSpace=wrap;html=1;" vertex="1" parent="1">
          <mxGeometry x="-16" y="135" width="134" height="60" as="geometry" />
        </mxCell>
        <mxCell id="4Vv4FzAK36hIdMXPsBs1-10" value="RecipeMatchingMinigameViewModel" style="rounded=1;whiteSpace=wrap;html=1;" vertex="1" parent="1">
          <mxGeometry x="176" y="135" width="213" height="60" as="geometry" />
        </mxCell>
        <mxCell id="4Vv4FzAK36hIdMXPsBs1-11" value="&lt;div&gt;MemoryMatchingMinigameViewModel&lt;/div&gt;" style="rounded=1;whiteSpace=wrap;html=1;" vertex="1" parent="1">
          <mxGeometry x="447" y="135" width="218" height="60" as="geometry" />
        </mxCell>
        <mxCell id="4Vv4FzAK36hIdMXPsBs1-19" style="edgeStyle=none;curved=1;rounded=0;orthogonalLoop=1;jettySize=auto;html=1;exitX=0.5;exitY=1;exitDx=0;exitDy=0;fontSize=12;startSize=8;endSize=8;" edge="1" parent="1" source="4Vv4FzAK36hIdMXPsBs1-13" target="4Vv4FzAK36hIdMXPsBs1-9">
          <mxGeometry relative="1" as="geometry" />
        </mxCell>
        <mxCell id="4Vv4FzAK36hIdMXPsBs1-13" value="EggDetailsScreen&lt;div&gt;(remote/local)&lt;/div&gt;" style="rounded=1;whiteSpace=wrap;html=1;" vertex="1" parent="1">
          <mxGeometry x="-16" y="-20" width="134" height="60" as="geometry" />
        </mxCell>
        <mxCell id="4Vv4FzAK36hIdMXPsBs1-20" style="edgeStyle=none;curved=1;rounded=0;orthogonalLoop=1;jettySize=auto;html=1;exitX=0.5;exitY=1;exitDx=0;exitDy=0;fontSize=12;startSize=8;endSize=8;" edge="1" parent="1" source="4Vv4FzAK36hIdMXPsBs1-15" target="4Vv4FzAK36hIdMXPsBs1-10">
          <mxGeometry relative="1" as="geometry" />
        </mxCell>
        <mxCell id="4Vv4FzAK36hIdMXPsBs1-15" value="RecipeMatchingMinigameScreen" style="rounded=1;whiteSpace=wrap;html=1;" vertex="1" parent="1">
          <mxGeometry x="176" y="-20" width="213" height="60" as="geometry" />
        </mxCell>
        <mxCell id="4Vv4FzAK36hIdMXPsBs1-21" style="edgeStyle=none;curved=1;rounded=0;orthogonalLoop=1;jettySize=auto;html=1;entryX=0.5;entryY=0;entryDx=0;entryDy=0;fontSize=12;startSize=8;endSize=8;" edge="1" parent="1" source="4Vv4FzAK36hIdMXPsBs1-16" target="4Vv4FzAK36hIdMXPsBs1-11">
          <mxGeometry relative="1" as="geometry" />
        </mxCell>
        <mxCell id="4Vv4FzAK36hIdMXPsBs1-16" value="MemoryMatchingMinigameScreen" style="rounded=1;whiteSpace=wrap;html=1;" vertex="1" parent="1">
          <mxGeometry x="447" y="-20" width="218" height="60" as="geometry" />
        </mxCell>
        <mxCell id="4Vv4FzAK36hIdMXPsBs1-22" value="EggsRepository" style="rounded=1;whiteSpace=wrap;html=1;" vertex="1" parent="1">
          <mxGeometry x="107" y="278" width="120" height="60" as="geometry" />
        </mxCell>
        <mxCell id="4Vv4FzAK36hIdMXPsBs1-28" value="" style="endArrow=classic;html=1;rounded=0;fontSize=12;startSize=8;endSize=8;curved=1;entryX=0.5;entryY=0;entryDx=0;entryDy=0;" edge="1" parent="1" target="4Vv4FzAK36hIdMXPsBs1-22">
          <mxGeometry width="50" height="50" relative="1" as="geometry">
            <mxPoint x="167" y="236" as="sourcePoint" />
            <mxPoint x="186" y="102" as="targetPoint" />
          </mxGeometry>
        </mxCell>
        <mxCell id="4Vv4FzAK36hIdMXPsBs1-30" value="" style="endArrow=none;html=1;rounded=0;fontSize=12;startSize=8;endSize=8;curved=1;entryX=0.5;entryY=1;entryDx=0;entryDy=0;" edge="1" parent="1" target="4Vv4FzAK36hIdMXPsBs1-9">
          <mxGeometry width="50" height="50" relative="1" as="geometry">
            <mxPoint x="51" y="236" as="sourcePoint" />
            <mxPoint x="130" y="229" as="targetPoint" />
          </mxGeometry>
        </mxCell>
        <mxCell id="4Vv4FzAK36hIdMXPsBs1-31" value="" style="endArrow=none;html=1;rounded=0;fontSize=12;startSize=8;endSize=8;curved=1;entryX=0.5;entryY=1;entryDx=0;entryDy=0;" edge="1" parent="1">
          <mxGeometry width="50" height="50" relative="1" as="geometry">
            <mxPoint x="282" y="236" as="sourcePoint" />
            <mxPoint x="282.14" y="195" as="targetPoint" />
          </mxGeometry>
        </mxCell>
        <mxCell id="4Vv4FzAK36hIdMXPsBs1-33" value="" style="endArrow=none;html=1;rounded=0;fontSize=12;startSize=8;endSize=8;curved=1;entryX=0.5;entryY=1;entryDx=0;entryDy=0;" edge="1" parent="1">
          <mxGeometry width="50" height="50" relative="1" as="geometry">
            <mxPoint x="556" y="236" as="sourcePoint" />
            <mxPoint x="555.64" y="195" as="targetPoint" />
          </mxGeometry>
        </mxCell>
        <mxCell id="4Vv4FzAK36hIdMXPsBs1-34" value="" style="endArrow=none;html=1;rounded=0;fontSize=12;startSize=8;endSize=8;curved=1;" edge="1" parent="1">
          <mxGeometry width="50" height="50" relative="1" as="geometry">
            <mxPoint x="556" y="236" as="sourcePoint" />
            <mxPoint x="-134" y="236" as="targetPoint" />
          </mxGeometry>
        </mxCell>
        <mxCell id="4Vv4FzAK36hIdMXPsBs1-35" value="RemoteEggsApi" style="rounded=1;whiteSpace=wrap;html=1;" vertex="1" parent="1">
          <mxGeometry x="222.5" y="421" width="120" height="60" as="geometry" />
        </mxCell>
        <mxCell id="4Vv4FzAK36hIdMXPsBs1-36" value="LocalDatabase" style="rounded=1;whiteSpace=wrap;html=1;" vertex="1" parent="1">
          <mxGeometry x="-9" y="421" width="120" height="60" as="geometry" />
        </mxCell>
        <mxCell id="4Vv4FzAK36hIdMXPsBs1-40" value="" style="endArrow=none;html=1;rounded=0;fontSize=12;startSize=8;endSize=8;curved=1;entryX=0.5;entryY=1;entryDx=0;entryDy=0;" edge="1" parent="1" target="4Vv4FzAK36hIdMXPsBs1-22">
          <mxGeometry width="50" height="50" relative="1" as="geometry">
            <mxPoint x="167" y="379" as="sourcePoint" />
            <mxPoint x="178" y="394" as="targetPoint" />
          </mxGeometry>
        </mxCell>
        <mxCell id="4Vv4FzAK36hIdMXPsBs1-42" value="" style="endArrow=classic;html=1;rounded=0;fontSize=12;startSize=8;endSize=8;curved=1;entryX=0.5;entryY=0;entryDx=0;entryDy=0;" edge="1" parent="1">
          <mxGeometry width="50" height="50" relative="1" as="geometry">
            <mxPoint x="51" y="379" as="sourcePoint" />
            <mxPoint x="50.77000000000004" y="421" as="targetPoint" />
          </mxGeometry>
        </mxCell>
        <mxCell id="4Vv4FzAK36hIdMXPsBs1-43" value="" style="endArrow=none;html=1;rounded=0;fontSize=12;startSize=8;endSize=8;curved=1;" edge="1" parent="1">
          <mxGeometry width="50" height="50" relative="1" as="geometry">
            <mxPoint x="51.5" y="379" as="sourcePoint" />
            <mxPoint x="282.5" y="379" as="targetPoint" />
          </mxGeometry>
        </mxCell>
        <mxCell id="4Vv4FzAK36hIdMXPsBs1-46" style="edgeStyle=none;curved=1;rounded=0;orthogonalLoop=1;jettySize=auto;html=1;entryX=0.5;entryY=0;entryDx=0;entryDy=0;entryPerimeter=0;fontSize=12;startSize=8;endSize=8;" edge="1" parent="1" source="4Vv4FzAK36hIdMXPsBs1-36">
          <mxGeometry relative="1" as="geometry">
            <mxPoint x="51" y="541" as="targetPoint" />
          </mxGeometry>
        </mxCell>
        <mxCell id="4Vv4FzAK36hIdMXPsBs1-47" style="edgeStyle=none;curved=1;rounded=0;orthogonalLoop=1;jettySize=auto;html=1;entryX=0.508;entryY=0.118;entryDx=0;entryDy=0;entryPerimeter=0;fontSize=12;startSize=8;endSize=8;" edge="1" parent="1" source="4Vv4FzAK36hIdMXPsBs1-35">
          <mxGeometry relative="1" as="geometry">
            <mxPoint x="283.63599999999997" y="550.4399999999998" as="targetPoint" />
          </mxGeometry>
        </mxCell>
        <mxCell id="4Vv4FzAK36hIdMXPsBs1-48" value="SQLite" style="shape=cylinder3;whiteSpace=wrap;html=1;boundedLbl=1;backgroundOutline=1;size=15;" vertex="1" parent="1">
          <mxGeometry x="21" y="541" width="60" height="80" as="geometry" />
        </mxCell>
        <mxCell id="4Vv4FzAK36hIdMXPsBs1-49" value="EggsApi" style="ellipse;shape=cloud;whiteSpace=wrap;html=1;" vertex="1" parent="1">
          <mxGeometry x="222.5" y="541" width="120" height="80" as="geometry" />
        </mxCell>
        <mxCell id="4Vv4FzAK36hIdMXPsBs1-50" value="" style="endArrow=classic;html=1;rounded=0;fontSize=12;startSize=8;endSize=8;curved=1;entryX=0.5;entryY=0;entryDx=0;entryDy=0;" edge="1" parent="1">
          <mxGeometry width="50" height="50" relative="1" as="geometry">
            <mxPoint x="282.61" y="379" as="sourcePoint" />
            <mxPoint x="282.38000000000005" y="421" as="targetPoint" />
          </mxGeometry>
        </mxCell>
        <mxCell id="4Vv4FzAK36hIdMXPsBs1-51" value="" style="endArrow=none;html=1;rounded=0;fontSize=12;startSize=8;endSize=8;curved=1;entryX=0.5;entryY=1;entryDx=0;entryDy=0;" edge="1" parent="1" target="4Vv4FzAK36hIdMXPsBs1-8">
          <mxGeometry width="50" height="50" relative="1" as="geometry">
            <mxPoint x="-134" y="236" as="sourcePoint" />
            <mxPoint x="-111" y="203" as="targetPoint" />
          </mxGeometry>
        </mxCell>
        <mxCell id="4Vv4FzAK36hIdMXPsBs1-52" value="" style="endArrow=none;dashed=1;html=1;rounded=0;fontSize=12;startSize=8;endSize=8;curved=1;" edge="1" parent="1">
          <mxGeometry width="50" height="50" relative="1" as="geometry">
            <mxPoint x="-410" y="87" as="sourcePoint" />
            <mxPoint x="692" y="87" as="targetPoint" />
          </mxGeometry>
        </mxCell>
        <mxCell id="4Vv4FzAK36hIdMXPsBs1-53" value="" style="endArrow=none;dashed=1;html=1;rounded=0;fontSize=12;startSize=8;endSize=8;curved=1;" edge="1" parent="1">
          <mxGeometry width="50" height="50" relative="1" as="geometry">
            <mxPoint x="-410" y="255" as="sourcePoint" />
            <mxPoint x="692" y="255" as="targetPoint" />
          </mxGeometry>
        </mxCell>
        <mxCell id="4Vv4FzAK36hIdMXPsBs1-55" value="" style="shape=curlyBracket;whiteSpace=wrap;html=1;rounded=1;labelPosition=left;verticalLabelPosition=middle;align=right;verticalAlign=middle;" vertex="1" parent="1">
          <mxGeometry x="-445" y="-25" width="20" height="111" as="geometry" />
        </mxCell>
        <mxCell id="4Vv4FzAK36hIdMXPsBs1-56" value="" style="shape=curlyBracket;whiteSpace=wrap;html=1;rounded=1;labelPosition=left;verticalLabelPosition=middle;align=right;verticalAlign=middle;" vertex="1" parent="1">
          <mxGeometry x="-445" y="86" width="20" height="169" as="geometry" />
        </mxCell>
        <mxCell id="4Vv4FzAK36hIdMXPsBs1-58" value="View" style="text;html=1;align=center;verticalAlign=middle;resizable=0;points=[];autosize=1;strokeColor=none;fillColor=none;fontSize=16;" vertex="1" parent="1">
          <mxGeometry x="-497" y="15.5" width="52" height="31" as="geometry" />
        </mxCell>
        <mxCell id="4Vv4FzAK36hIdMXPsBs1-59" value="ViewModel" style="text;html=1;align=center;verticalAlign=middle;resizable=0;points=[];autosize=1;strokeColor=none;fillColor=none;fontSize=16;" vertex="1" parent="1">
          <mxGeometry x="-541" y="155" width="96" height="31" as="geometry" />
        </mxCell>
        <mxCell id="4Vv4FzAK36hIdMXPsBs1-60" value="" style="shape=curlyBracket;whiteSpace=wrap;html=1;rounded=1;labelPosition=left;verticalLabelPosition=middle;align=right;verticalAlign=middle;" vertex="1" parent="1">
          <mxGeometry x="-445" y="255" width="20" height="372" as="geometry" />
        </mxCell>
        <mxCell id="4Vv4FzAK36hIdMXPsBs1-61" value="Model" style="text;html=1;align=center;verticalAlign=middle;resizable=0;points=[];autosize=1;strokeColor=none;fillColor=none;fontSize=16;" vertex="1" parent="1">
          <mxGeometry x="-507" y="425.5" width="62" height="31" as="geometry" />
        </mxCell>
        <mxCell id="4Vv4FzAK36hIdMXPsBs1-63" value="" style="shape=curlyBracket;whiteSpace=wrap;html=1;rounded=1;labelPosition=left;verticalLabelPosition=middle;align=right;verticalAlign=middle;" vertex="1" parent="1">
          <mxGeometry x="-561" y="255" width="20" height="372" as="geometry" />
        </mxCell>
        <mxCell id="4Vv4FzAK36hIdMXPsBs1-64" value="Data" style="text;html=1;align=center;verticalAlign=middle;resizable=0;points=[];autosize=1;strokeColor=none;fillColor=none;fontSize=16;" vertex="1" parent="1">
          <mxGeometry x="-613" y="425.5" width="52" height="31" as="geometry" />
        </mxCell>
        <mxCell id="4Vv4FzAK36hIdMXPsBs1-65" value="" style="shape=curlyBracket;whiteSpace=wrap;html=1;rounded=1;labelPosition=left;verticalLabelPosition=middle;align=right;verticalAlign=middle;" vertex="1" parent="1">
          <mxGeometry x="-561" y="-25" width="20" height="280" as="geometry" />
        </mxCell>
        <mxCell id="4Vv4FzAK36hIdMXPsBs1-66" value="UI" style="text;html=1;align=center;verticalAlign=middle;resizable=0;points=[];autosize=1;strokeColor=none;fillColor=none;fontSize=16;" vertex="1" parent="1">
          <mxGeometry x="-595" y="101.5" width="34" height="31" as="geometry" />
        </mxCell>
      </root>
    </mxGraphModel>
  </diagram>
</mxfile>
